<mxfile host="Electron" modified="2024-03-07T05:34:33.327Z" agent="Mozilla/5.0 (X11; Linux x86_64) AppleWebKit/537.36 (KHTML, like Gecko) draw.io/23.1.5 Chrome/120.0.6099.109 Electron/28.1.0 Safari/537.36" etag="FSXKZ70MA7Vi8CL-qYWN" version="23.1.5" type="device">
  <diagram name="Page-1" id="okQUsLcCIn6qNMJXYvbM">
    <mxGraphModel dx="5430" dy="1203" grid="1" gridSize="10" guides="1" tooltips="1" connect="1" arrows="1" fold="1" page="1" pageScale="1" pageWidth="850" pageHeight="1100" math="0" shadow="0">
      <root>
        <mxCell id="0" />
        <mxCell id="1" parent="0" />
        <mxCell id="h0eOzMq_kodjlUiezx8Z-84" value="&lt;font style=&quot;font-size: 48px;&quot;&gt;Distributed NVMe Data Plane&lt;/font&gt;" style="rounded=1;whiteSpace=wrap;html=1;strokeWidth=2;verticalAlign=bottom;" parent="1" vertex="1">
          <mxGeometry x="-2010" y="380" width="2120" height="780" as="geometry" />
        </mxCell>
        <mxCell id="h0eOzMq_kodjlUiezx8Z-11" value="&lt;font style=&quot;font-size: 48px;&quot;&gt;Controller Node&lt;/font&gt;" style="rounded=1;whiteSpace=wrap;html=1;verticalAlign=bottom;" parent="1" vertex="1">
          <mxGeometry x="-920" y="440" width="360" height="240" as="geometry" />
        </mxCell>
        <mxCell id="h0eOzMq_kodjlUiezx8Z-2" value="&lt;font style=&quot;font-size: 48px;&quot;&gt;Controller Node&lt;/font&gt;" style="rounded=1;whiteSpace=wrap;html=1;verticalAlign=bottom;" parent="1" vertex="1">
          <mxGeometry x="-1340" y="440" width="360" height="240" as="geometry" />
        </mxCell>
        <mxCell id="h0eOzMq_kodjlUiezx8Z-1" value="&lt;font style=&quot;font-size: 24px;&quot;&gt;Active&lt;br&gt;Controller&lt;/font&gt;" style="rounded=1;whiteSpace=wrap;html=1;" parent="1" vertex="1">
          <mxGeometry x="-1280" y="500" width="240" height="120" as="geometry" />
        </mxCell>
        <mxCell id="h0eOzMq_kodjlUiezx8Z-4" value="&lt;font style=&quot;font-size: 24px;&quot;&gt;Active&lt;br&gt;Controller&lt;/font&gt;" style="rounded=1;whiteSpace=wrap;html=1;" parent="1" vertex="1">
          <mxGeometry x="-860" y="500" width="240" height="120" as="geometry" />
        </mxCell>
        <mxCell id="EK6KpNQJIU4OniFnHXBM-4" value="" style="endArrow=classic;html=1;rounded=0;strokeWidth=5;strokeColor=#f000f0;exitX=1;exitY=0.75;exitDx=0;exitDy=0;entryX=0;entryY=0.75;entryDx=0;entryDy=0;" parent="1" edge="1">
          <mxGeometry width="50" height="50" relative="1" as="geometry">
            <mxPoint x="-860" y="605" as="sourcePoint" />
            <mxPoint x="-1040" y="605" as="targetPoint" />
          </mxGeometry>
        </mxCell>
        <mxCell id="h0eOzMq_kodjlUiezx8Z-5" value="" style="endArrow=classic;html=1;rounded=0;strokeWidth=5;strokeColor=#f000f0;exitX=1;exitY=0.25;exitDx=0;exitDy=0;entryX=0;entryY=0.25;entryDx=0;entryDy=0;" parent="1" edge="1">
          <mxGeometry width="50" height="50" relative="1" as="geometry">
            <mxPoint x="-860" y="575" as="sourcePoint" />
            <mxPoint x="-1040" y="575" as="targetPoint" />
          </mxGeometry>
        </mxCell>
        <mxCell id="h0eOzMq_kodjlUiezx8Z-6" value="" style="endArrow=classic;html=1;rounded=0;strokeWidth=5;strokeColor=#f000f0;exitX=0;exitY=0.75;exitDx=0;exitDy=0;entryX=1;entryY=0.75;entryDx=0;entryDy=0;" parent="1" edge="1">
          <mxGeometry width="50" height="50" relative="1" as="geometry">
            <mxPoint x="-1040" y="545" as="sourcePoint" />
            <mxPoint x="-860" y="545" as="targetPoint" />
          </mxGeometry>
        </mxCell>
        <mxCell id="h0eOzMq_kodjlUiezx8Z-7" value="" style="endArrow=classic;html=1;rounded=0;strokeWidth=5;strokeColor=#f000f0;exitX=0;exitY=0.25;exitDx=0;exitDy=0;entryX=1;entryY=0.25;entryDx=0;entryDy=0;" parent="1" edge="1">
          <mxGeometry width="50" height="50" relative="1" as="geometry">
            <mxPoint x="-1040" y="515" as="sourcePoint" />
            <mxPoint x="-860" y="515" as="targetPoint" />
          </mxGeometry>
        </mxCell>
        <mxCell id="h0eOzMq_kodjlUiezx8Z-14" value="&lt;font style=&quot;font-size: 48px;&quot;&gt;Controller Node&lt;/font&gt;" style="rounded=1;whiteSpace=wrap;html=1;verticalAlign=bottom;" parent="1" vertex="1">
          <mxGeometry x="-500" y="430" width="360" height="240" as="geometry" />
        </mxCell>
        <mxCell id="h0eOzMq_kodjlUiezx8Z-15" value="&lt;font style=&quot;font-size: 24px;&quot;&gt;Standby&lt;br&gt;Controller&lt;/font&gt;" style="rounded=1;whiteSpace=wrap;html=1;" parent="1" vertex="1">
          <mxGeometry x="-440" y="490" width="240" height="120" as="geometry" />
        </mxCell>
        <mxCell id="h0eOzMq_kodjlUiezx8Z-46" value="" style="group" parent="1" vertex="1" connectable="0">
          <mxGeometry x="-440" y="840" width="240" height="120" as="geometry" />
        </mxCell>
        <mxCell id="h0eOzMq_kodjlUiezx8Z-44" value="&lt;font style=&quot;font-size: 48px;&quot;&gt;Disk Node&lt;/font&gt;" style="rounded=1;whiteSpace=wrap;html=1;verticalAlign=bottom;" parent="h0eOzMq_kodjlUiezx8Z-46" vertex="1">
          <mxGeometry width="240" height="120" as="geometry" />
        </mxCell>
        <mxCell id="h0eOzMq_kodjlUiezx8Z-45" value="&lt;span style=&quot;font-size: 24px;&quot;&gt;Logical Disk&lt;/span&gt;" style="rounded=1;whiteSpace=wrap;html=1;" parent="h0eOzMq_kodjlUiezx8Z-46" vertex="1">
          <mxGeometry x="60" y="10" width="120" height="60" as="geometry" />
        </mxCell>
        <mxCell id="h0eOzMq_kodjlUiezx8Z-47" value="" style="group" parent="1" vertex="1" connectable="0">
          <mxGeometry x="-190" y="840" width="240" height="120" as="geometry" />
        </mxCell>
        <mxCell id="h0eOzMq_kodjlUiezx8Z-48" value="&lt;font style=&quot;font-size: 48px;&quot;&gt;Disk Node&lt;/font&gt;" style="rounded=1;whiteSpace=wrap;html=1;verticalAlign=bottom;" parent="h0eOzMq_kodjlUiezx8Z-47" vertex="1">
          <mxGeometry width="240" height="120" as="geometry" />
        </mxCell>
        <mxCell id="h0eOzMq_kodjlUiezx8Z-49" value="&lt;span style=&quot;font-size: 24px;&quot;&gt;Virtual Disk&lt;/span&gt;" style="rounded=1;whiteSpace=wrap;html=1;" parent="h0eOzMq_kodjlUiezx8Z-47" vertex="1">
          <mxGeometry x="60" y="10" width="120" height="60" as="geometry" />
        </mxCell>
        <mxCell id="h0eOzMq_kodjlUiezx8Z-50" value="" style="group" parent="1" vertex="1" connectable="0">
          <mxGeometry x="-690" y="840" width="240" height="120" as="geometry" />
        </mxCell>
        <mxCell id="h0eOzMq_kodjlUiezx8Z-51" value="&lt;font style=&quot;font-size: 48px;&quot;&gt;Disk Node&lt;/font&gt;" style="rounded=1;whiteSpace=wrap;html=1;verticalAlign=bottom;" parent="h0eOzMq_kodjlUiezx8Z-50" vertex="1">
          <mxGeometry width="240" height="120" as="geometry" />
        </mxCell>
        <mxCell id="h0eOzMq_kodjlUiezx8Z-52" value="&lt;span style=&quot;font-size: 24px;&quot;&gt;Logical Disk&lt;/span&gt;" style="rounded=1;whiteSpace=wrap;html=1;" parent="h0eOzMq_kodjlUiezx8Z-50" vertex="1">
          <mxGeometry x="60" y="10" width="120" height="60" as="geometry" />
        </mxCell>
        <mxCell id="h0eOzMq_kodjlUiezx8Z-53" value="" style="group" parent="1" vertex="1" connectable="0">
          <mxGeometry x="-940" y="840" width="240" height="120" as="geometry" />
        </mxCell>
        <mxCell id="h0eOzMq_kodjlUiezx8Z-54" value="&lt;font style=&quot;font-size: 48px;&quot;&gt;Disk Node&lt;/font&gt;" style="rounded=1;whiteSpace=wrap;html=1;verticalAlign=bottom;" parent="h0eOzMq_kodjlUiezx8Z-53" vertex="1">
          <mxGeometry width="240" height="120" as="geometry" />
        </mxCell>
        <mxCell id="h0eOzMq_kodjlUiezx8Z-55" value="&lt;span style=&quot;font-size: 24px;&quot;&gt;Logical Disk&lt;/span&gt;" style="rounded=1;whiteSpace=wrap;html=1;" parent="h0eOzMq_kodjlUiezx8Z-53" vertex="1">
          <mxGeometry x="60" y="10" width="120" height="60" as="geometry" />
        </mxCell>
        <mxCell id="h0eOzMq_kodjlUiezx8Z-59" value="" style="group" parent="1" vertex="1" connectable="0">
          <mxGeometry x="-1450" y="840" width="240" height="120" as="geometry" />
        </mxCell>
        <mxCell id="h0eOzMq_kodjlUiezx8Z-60" value="&lt;font style=&quot;font-size: 48px;&quot;&gt;Disk Node&lt;/font&gt;" style="rounded=1;whiteSpace=wrap;html=1;verticalAlign=bottom;" parent="h0eOzMq_kodjlUiezx8Z-59" vertex="1">
          <mxGeometry width="240" height="120" as="geometry" />
        </mxCell>
        <mxCell id="h0eOzMq_kodjlUiezx8Z-61" value="&lt;span style=&quot;font-size: 24px;&quot;&gt;Logical Disk&lt;/span&gt;" style="rounded=1;whiteSpace=wrap;html=1;" parent="h0eOzMq_kodjlUiezx8Z-59" vertex="1">
          <mxGeometry x="60" y="10" width="120" height="60" as="geometry" />
        </mxCell>
        <mxCell id="h0eOzMq_kodjlUiezx8Z-62" value="" style="group" parent="1" vertex="1" connectable="0">
          <mxGeometry x="-1700" y="840" width="240" height="120" as="geometry" />
        </mxCell>
        <mxCell id="h0eOzMq_kodjlUiezx8Z-63" value="&lt;font style=&quot;font-size: 48px;&quot;&gt;Disk Node&lt;/font&gt;" style="rounded=1;whiteSpace=wrap;html=1;verticalAlign=bottom;" parent="h0eOzMq_kodjlUiezx8Z-62" vertex="1">
          <mxGeometry width="240" height="120" as="geometry" />
        </mxCell>
        <mxCell id="h0eOzMq_kodjlUiezx8Z-64" value="&lt;span style=&quot;font-size: 24px;&quot;&gt;Logical Disk&lt;/span&gt;" style="rounded=1;whiteSpace=wrap;html=1;" parent="h0eOzMq_kodjlUiezx8Z-62" vertex="1">
          <mxGeometry x="60" y="10" width="120" height="60" as="geometry" />
        </mxCell>
        <mxCell id="h0eOzMq_kodjlUiezx8Z-65" value="" style="group" parent="1" vertex="1" connectable="0">
          <mxGeometry x="-1950" y="840" width="240" height="120" as="geometry" />
        </mxCell>
        <mxCell id="h0eOzMq_kodjlUiezx8Z-66" value="&lt;font style=&quot;font-size: 48px;&quot;&gt;Disk Node&lt;/font&gt;" style="rounded=1;whiteSpace=wrap;html=1;verticalAlign=bottom;" parent="h0eOzMq_kodjlUiezx8Z-65" vertex="1">
          <mxGeometry width="240" height="120" as="geometry" />
        </mxCell>
        <mxCell id="h0eOzMq_kodjlUiezx8Z-67" value="&lt;span style=&quot;font-size: 24px;&quot;&gt;Logical Disk&lt;/span&gt;" style="rounded=1;whiteSpace=wrap;html=1;" parent="h0eOzMq_kodjlUiezx8Z-65" vertex="1">
          <mxGeometry x="60" y="10" width="120" height="60" as="geometry" />
        </mxCell>
        <mxCell id="h0eOzMq_kodjlUiezx8Z-77" value="" style="endArrow=classic;html=1;rounded=0;strokeWidth=5;strokeColor=#0000f0;exitX=0.5;exitY=0;exitDx=0;exitDy=0;entryX=0.5;entryY=0;entryDx=0;entryDy=0;" parent="1" source="h0eOzMq_kodjlUiezx8Z-67" edge="1">
          <mxGeometry width="50" height="50" relative="1" as="geometry">
            <mxPoint x="-1830" y="740" as="sourcePoint" />
            <mxPoint x="-1250" y="620" as="targetPoint" />
          </mxGeometry>
        </mxCell>
        <mxCell id="h0eOzMq_kodjlUiezx8Z-71" value="" style="endArrow=classic;html=1;rounded=0;strokeWidth=5;strokeColor=#0000f0;exitX=0.5;exitY=0;exitDx=0;exitDy=0;entryX=0.5;entryY=0;entryDx=0;entryDy=0;" parent="1" source="h0eOzMq_kodjlUiezx8Z-64" edge="1">
          <mxGeometry width="50" height="50" relative="1" as="geometry">
            <mxPoint x="-1380" y="800" as="sourcePoint" />
            <mxPoint x="-1190" y="620" as="targetPoint" />
          </mxGeometry>
        </mxCell>
        <mxCell id="h0eOzMq_kodjlUiezx8Z-76" value="" style="endArrow=classic;html=1;rounded=0;strokeWidth=5;strokeColor=#0000f0;exitX=0.5;exitY=0;exitDx=0;exitDy=0;entryX=0.5;entryY=0;entryDx=0;entryDy=0;" parent="1" source="h0eOzMq_kodjlUiezx8Z-61" edge="1">
          <mxGeometry width="50" height="50" relative="1" as="geometry">
            <mxPoint x="-1200" y="780" as="sourcePoint" />
            <mxPoint x="-1130" y="620" as="targetPoint" />
          </mxGeometry>
        </mxCell>
        <mxCell id="h0eOzMq_kodjlUiezx8Z-73" value="" style="endArrow=classic;html=1;rounded=0;strokeWidth=5;strokeColor=#0000f0;exitX=0.5;exitY=0;exitDx=0;exitDy=0;entryX=0.5;entryY=0;entryDx=0;entryDy=0;" parent="1" source="h0eOzMq_kodjlUiezx8Z-52" edge="1">
          <mxGeometry width="50" height="50" relative="1" as="geometry">
            <mxPoint x="-610" y="760" as="sourcePoint" />
            <mxPoint x="-770" y="620" as="targetPoint" />
          </mxGeometry>
        </mxCell>
        <mxCell id="h0eOzMq_kodjlUiezx8Z-74" value="" style="endArrow=classic;html=1;rounded=0;strokeWidth=5;strokeColor=#0000f0;exitX=0.5;exitY=0;exitDx=0;exitDy=0;entryX=0.5;entryY=0;entryDx=0;entryDy=0;" parent="1" source="h0eOzMq_kodjlUiezx8Z-45" edge="1">
          <mxGeometry width="50" height="50" relative="1" as="geometry">
            <mxPoint x="-170" y="770" as="sourcePoint" />
            <mxPoint x="-710" y="620" as="targetPoint" />
          </mxGeometry>
        </mxCell>
        <mxCell id="h0eOzMq_kodjlUiezx8Z-75" value="" style="endArrow=classic;html=1;rounded=0;strokeWidth=5;strokeColor=#0000f0;exitX=0.5;exitY=0;exitDx=0;exitDy=0;entryX=0.5;entryY=0;entryDx=0;entryDy=0;" parent="1" source="h0eOzMq_kodjlUiezx8Z-49" edge="1">
          <mxGeometry width="50" height="50" relative="1" as="geometry">
            <mxPoint x="-160" y="780" as="sourcePoint" />
            <mxPoint x="-650" y="620" as="targetPoint" />
          </mxGeometry>
        </mxCell>
        <mxCell id="h0eOzMq_kodjlUiezx8Z-95" value="&lt;font style=&quot;font-size: 24px;&quot;&gt;Physical&lt;br&gt;Disk&lt;/font&gt;" style="shape=cylinder3;whiteSpace=wrap;html=1;boundedLbl=1;backgroundOutline=1;size=15;" parent="1" vertex="1">
          <mxGeometry x="-1890" y="1020" width="120" height="80" as="geometry" />
        </mxCell>
        <mxCell id="h0eOzMq_kodjlUiezx8Z-105" value="&lt;font style=&quot;font-size: 24px;&quot;&gt;Physical&lt;br&gt;Disk&lt;/font&gt;" style="shape=cylinder3;whiteSpace=wrap;html=1;boundedLbl=1;backgroundOutline=1;size=15;" parent="1" vertex="1">
          <mxGeometry x="-1640" y="1020" width="120" height="80" as="geometry" />
        </mxCell>
        <mxCell id="h0eOzMq_kodjlUiezx8Z-106" value="&lt;font style=&quot;font-size: 24px;&quot;&gt;Physical&lt;br&gt;Disk&lt;/font&gt;" style="shape=cylinder3;whiteSpace=wrap;html=1;boundedLbl=1;backgroundOutline=1;size=15;" parent="1" vertex="1">
          <mxGeometry x="-130" y="1020" width="120" height="80" as="geometry" />
        </mxCell>
        <mxCell id="h0eOzMq_kodjlUiezx8Z-107" value="&lt;font style=&quot;font-size: 24px;&quot;&gt;Physical&lt;br&gt;Disk&lt;/font&gt;" style="shape=cylinder3;whiteSpace=wrap;html=1;boundedLbl=1;backgroundOutline=1;size=15;" parent="1" vertex="1">
          <mxGeometry x="-380" y="1020" width="120" height="80" as="geometry" />
        </mxCell>
        <mxCell id="h0eOzMq_kodjlUiezx8Z-108" value="&lt;font style=&quot;font-size: 24px;&quot;&gt;Physical&lt;br&gt;Disk&lt;/font&gt;" style="shape=cylinder3;whiteSpace=wrap;html=1;boundedLbl=1;backgroundOutline=1;size=15;" parent="1" vertex="1">
          <mxGeometry x="-630" y="1020" width="120" height="80" as="geometry" />
        </mxCell>
        <mxCell id="h0eOzMq_kodjlUiezx8Z-109" value="&lt;font style=&quot;font-size: 24px;&quot;&gt;Physical&lt;br&gt;Disk&lt;/font&gt;" style="shape=cylinder3;whiteSpace=wrap;html=1;boundedLbl=1;backgroundOutline=1;size=15;" parent="1" vertex="1">
          <mxGeometry x="-880" y="1020" width="120" height="80" as="geometry" />
        </mxCell>
        <mxCell id="h0eOzMq_kodjlUiezx8Z-110" value="&lt;font style=&quot;font-size: 24px;&quot;&gt;Physical&lt;br&gt;Disk&lt;/font&gt;" style="shape=cylinder3;whiteSpace=wrap;html=1;boundedLbl=1;backgroundOutline=1;size=15;" parent="1" vertex="1">
          <mxGeometry x="-1140" y="1020" width="120" height="80" as="geometry" />
        </mxCell>
        <mxCell id="h0eOzMq_kodjlUiezx8Z-111" value="&lt;font style=&quot;font-size: 24px;&quot;&gt;Physical&lt;br&gt;Disk&lt;/font&gt;" style="shape=cylinder3;whiteSpace=wrap;html=1;boundedLbl=1;backgroundOutline=1;size=15;" parent="1" vertex="1">
          <mxGeometry x="-1390" y="1020" width="120" height="80" as="geometry" />
        </mxCell>
        <mxCell id="EK6KpNQJIU4OniFnHXBM-5" value="" style="endArrow=classic;html=1;rounded=0;strokeWidth=5;strokeColor=#000000;exitX=0.5;exitY=0;exitDx=0;exitDy=0;exitPerimeter=0;entryX=0.5;entryY=0;entryDx=0;entryDy=0;" parent="1" source="h0eOzMq_kodjlUiezx8Z-106" edge="1">
          <mxGeometry width="50" height="50" relative="1" as="geometry">
            <mxPoint x="-250" y="1170" as="sourcePoint" />
            <mxPoint x="-70" y="960" as="targetPoint" />
          </mxGeometry>
        </mxCell>
        <mxCell id="h0eOzMq_kodjlUiezx8Z-112" value="" style="endArrow=classic;html=1;rounded=0;strokeWidth=5;strokeColor=#000000;exitX=0.5;exitY=0;exitDx=0;exitDy=0;exitPerimeter=0;entryX=0.5;entryY=0;entryDx=0;entryDy=0;" parent="1" source="h0eOzMq_kodjlUiezx8Z-107" edge="1">
          <mxGeometry width="50" height="50" relative="1" as="geometry">
            <mxPoint x="-260" y="1200" as="sourcePoint" />
            <mxPoint x="-320" y="960" as="targetPoint" />
          </mxGeometry>
        </mxCell>
        <mxCell id="h0eOzMq_kodjlUiezx8Z-113" value="" style="endArrow=classic;html=1;rounded=0;strokeWidth=5;strokeColor=#000000;exitX=0.5;exitY=0;exitDx=0;exitDy=0;exitPerimeter=0;entryX=0.5;entryY=0;entryDx=0;entryDy=0;" parent="1" source="h0eOzMq_kodjlUiezx8Z-108" edge="1">
          <mxGeometry width="50" height="50" relative="1" as="geometry">
            <mxPoint x="-440" y="1240" as="sourcePoint" />
            <mxPoint x="-570" y="960" as="targetPoint" />
          </mxGeometry>
        </mxCell>
        <mxCell id="h0eOzMq_kodjlUiezx8Z-114" value="" style="endArrow=classic;html=1;rounded=0;strokeWidth=5;strokeColor=#000000;exitX=0.5;exitY=0;exitDx=0;exitDy=0;exitPerimeter=0;entryX=0.5;entryY=0;entryDx=0;entryDy=0;" parent="1" source="h0eOzMq_kodjlUiezx8Z-109" edge="1">
          <mxGeometry width="50" height="50" relative="1" as="geometry">
            <mxPoint x="-800" y="1190" as="sourcePoint" />
            <mxPoint x="-820" y="960" as="targetPoint" />
          </mxGeometry>
        </mxCell>
        <mxCell id="h0eOzMq_kodjlUiezx8Z-116" value="" style="endArrow=classic;html=1;rounded=0;strokeWidth=5;strokeColor=#000000;exitX=0.5;exitY=0;exitDx=0;exitDy=0;exitPerimeter=0;entryX=0.5;entryY=0;entryDx=0;entryDy=0;" parent="1" source="h0eOzMq_kodjlUiezx8Z-111" edge="1">
          <mxGeometry width="50" height="50" relative="1" as="geometry">
            <mxPoint x="-1275" y="1200" as="sourcePoint" />
            <mxPoint x="-1330" y="960" as="targetPoint" />
          </mxGeometry>
        </mxCell>
        <mxCell id="h0eOzMq_kodjlUiezx8Z-117" value="" style="endArrow=classic;html=1;rounded=0;strokeWidth=5;strokeColor=#000000;exitX=0.5;exitY=0;exitDx=0;exitDy=0;exitPerimeter=0;entryX=0.5;entryY=0;entryDx=0;entryDy=0;" parent="1" source="h0eOzMq_kodjlUiezx8Z-105" edge="1">
          <mxGeometry width="50" height="50" relative="1" as="geometry">
            <mxPoint x="-1555" y="1210" as="sourcePoint" />
            <mxPoint x="-1580" y="960" as="targetPoint" />
          </mxGeometry>
        </mxCell>
        <mxCell id="h0eOzMq_kodjlUiezx8Z-118" value="" style="endArrow=classic;html=1;rounded=0;strokeWidth=5;strokeColor=#000000;exitX=0.5;exitY=0;exitDx=0;exitDy=0;exitPerimeter=0;entryX=0.5;entryY=0;entryDx=0;entryDy=0;" parent="1" source="h0eOzMq_kodjlUiezx8Z-95" edge="1">
          <mxGeometry width="50" height="50" relative="1" as="geometry">
            <mxPoint x="-1770" y="1160" as="sourcePoint" />
            <mxPoint x="-1830" y="960" as="targetPoint" />
          </mxGeometry>
        </mxCell>
        <mxCell id="h0eOzMq_kodjlUiezx8Z-119" value="" style="group" parent="1" vertex="1" connectable="0">
          <mxGeometry x="-1200" y="840" width="240" height="120" as="geometry" />
        </mxCell>
        <mxCell id="h0eOzMq_kodjlUiezx8Z-120" value="&lt;font style=&quot;font-size: 48px;&quot;&gt;Disk Node&lt;/font&gt;" style="rounded=1;whiteSpace=wrap;html=1;verticalAlign=bottom;" parent="h0eOzMq_kodjlUiezx8Z-119" vertex="1">
          <mxGeometry width="240" height="120" as="geometry" />
        </mxCell>
        <mxCell id="h0eOzMq_kodjlUiezx8Z-121" value="&lt;span style=&quot;font-size: 24px;&quot;&gt;Logical Disk&lt;/span&gt;" style="rounded=1;whiteSpace=wrap;html=1;" parent="h0eOzMq_kodjlUiezx8Z-119" vertex="1">
          <mxGeometry x="60" y="10" width="120" height="60" as="geometry" />
        </mxCell>
        <mxCell id="EK6KpNQJIU4OniFnHXBM-8" value="" style="endArrow=classic;html=1;rounded=0;strokeWidth=5;strokeColor=#0000f0;entryX=0.5;entryY=0;entryDx=0;entryDy=0;exitX=0.5;exitY=0;exitDx=0;exitDy=0;" parent="1" edge="1">
          <mxGeometry width="50" height="50" relative="1" as="geometry">
            <mxPoint x="-1070" y="620" as="sourcePoint" />
            <mxPoint x="-1070" y="620" as="targetPoint" />
          </mxGeometry>
        </mxCell>
        <mxCell id="h0eOzMq_kodjlUiezx8Z-72" value="" style="endArrow=classic;html=1;rounded=0;strokeWidth=5;strokeColor=#0000f0;exitX=0.5;exitY=0;exitDx=0;exitDy=0;entryX=0.5;entryY=0;entryDx=0;entryDy=0;" parent="1" source="h0eOzMq_kodjlUiezx8Z-55" edge="1">
          <mxGeometry width="50" height="50" relative="1" as="geometry">
            <mxPoint x="-810" y="780" as="sourcePoint" />
            <mxPoint x="-830" y="620" as="targetPoint" />
          </mxGeometry>
        </mxCell>
        <mxCell id="h0eOzMq_kodjlUiezx8Z-122" value="" style="endArrow=classic;html=1;rounded=0;strokeWidth=5;strokeColor=#000000;exitX=0.5;exitY=0;exitDx=0;exitDy=0;exitPerimeter=0;entryX=0.5;entryY=1;entryDx=0;entryDy=0;" parent="1" source="h0eOzMq_kodjlUiezx8Z-110" target="h0eOzMq_kodjlUiezx8Z-120" edge="1">
          <mxGeometry width="50" height="50" relative="1" as="geometry">
            <mxPoint x="-1080" y="1240" as="sourcePoint" />
            <mxPoint x="-1030" y="1190" as="targetPoint" />
          </mxGeometry>
        </mxCell>
        <mxCell id="h0eOzMq_kodjlUiezx8Z-132" value="" style="group" parent="1" vertex="1" connectable="0">
          <mxGeometry x="-1130" y="140" width="360" height="180" as="geometry" />
        </mxCell>
        <mxCell id="h0eOzMq_kodjlUiezx8Z-131" value="&lt;font style=&quot;font-size: 48px;&quot;&gt;Host&lt;/font&gt;" style="rounded=1;whiteSpace=wrap;html=1;verticalAlign=top;" parent="h0eOzMq_kodjlUiezx8Z-132" vertex="1">
          <mxGeometry width="360" height="180" as="geometry" />
        </mxCell>
        <mxCell id="h0eOzMq_kodjlUiezx8Z-130" value="&lt;font style=&quot;font-size: 24px;&quot;&gt;nvmeof&lt;br&gt;multipath&lt;br&gt;&lt;/font&gt;" style="rounded=0;whiteSpace=wrap;html=1;" parent="h0eOzMq_kodjlUiezx8Z-132" vertex="1">
          <mxGeometry x="120" y="110" width="120" height="60" as="geometry" />
        </mxCell>
        <mxCell id="EK6KpNQJIU4OniFnHXBM-2" value="" style="endArrow=classic;html=1;rounded=0;strokeWidth=5;strokeColor=#f00000;exitX=0.5;exitY=0;exitDx=0;exitDy=0;entryX=0.5;entryY=1;entryDx=0;entryDy=0;" parent="1" source="h0eOzMq_kodjlUiezx8Z-15" target="h0eOzMq_kodjlUiezx8Z-130" edge="1">
          <mxGeometry width="50" height="50" relative="1" as="geometry">
            <mxPoint x="-540" y="300" as="sourcePoint" />
            <mxPoint x="-490" y="250" as="targetPoint" />
          </mxGeometry>
        </mxCell>
        <mxCell id="h0eOzMq_kodjlUiezx8Z-134" value="&lt;font style=&quot;font-size: 48px;&quot;&gt;Controller Node&lt;/font&gt;" style="rounded=1;whiteSpace=wrap;html=1;verticalAlign=bottom;" parent="1" vertex="1">
          <mxGeometry x="-1760" y="440" width="360" height="240" as="geometry" />
        </mxCell>
        <mxCell id="h0eOzMq_kodjlUiezx8Z-135" value="&lt;font style=&quot;font-size: 24px;&quot;&gt;Standby&lt;br&gt;Controller&lt;/font&gt;" style="rounded=1;whiteSpace=wrap;html=1;" parent="1" vertex="1">
          <mxGeometry x="-1700" y="500" width="240" height="120" as="geometry" />
        </mxCell>
        <mxCell id="h0eOzMq_kodjlUiezx8Z-137" value="" style="endArrow=classic;html=1;rounded=0;strokeWidth=5;strokeColor=#f00000;exitX=0.5;exitY=0;exitDx=0;exitDy=0;entryX=0.5;entryY=1;entryDx=0;entryDy=0;" parent="1" source="h0eOzMq_kodjlUiezx8Z-135" target="h0eOzMq_kodjlUiezx8Z-130" edge="1">
          <mxGeometry width="50" height="50" relative="1" as="geometry">
            <mxPoint x="-1360" y="350" as="sourcePoint" />
            <mxPoint x="-1930" y="140" as="targetPoint" />
          </mxGeometry>
        </mxCell>
        <mxCell id="h0eOzMq_kodjlUiezx8Z-133" value="" style="endArrow=classic;html=1;rounded=0;strokeWidth=5;strokeColor=#00c800;exitX=0.529;exitY=0;exitDx=0;exitDy=0;exitPerimeter=0;entryX=0.5;entryY=1;entryDx=0;entryDy=0;" parent="1" source="h0eOzMq_kodjlUiezx8Z-1" target="h0eOzMq_kodjlUiezx8Z-130" edge="1">
          <mxGeometry width="50" height="50" relative="1" as="geometry">
            <mxPoint x="-1240" y="320" as="sourcePoint" />
            <mxPoint x="-1190" y="270" as="targetPoint" />
          </mxGeometry>
        </mxCell>
        <mxCell id="EK6KpNQJIU4OniFnHXBM-1" value="" style="endArrow=classic;html=1;rounded=0;strokeWidth=5;strokeColor=#00c800;exitX=0.5;exitY=0;exitDx=0;exitDy=0;entryX=0.5;entryY=1;entryDx=0;entryDy=0;" parent="1" source="h0eOzMq_kodjlUiezx8Z-4" target="h0eOzMq_kodjlUiezx8Z-130" edge="1">
          <mxGeometry width="50" height="50" relative="1" as="geometry">
            <mxPoint x="-1370" y="260" as="sourcePoint" />
            <mxPoint x="-1320" y="210" as="targetPoint" />
          </mxGeometry>
        </mxCell>
        <mxCell id="evnHyxfbbK5oU3G3segp-5" value="" style="endArrow=classic;html=1;rounded=0;strokeWidth=5;strokeColor=#0000f0;entryX=0.5;entryY=0;entryDx=0;entryDy=0;exitX=0.5;exitY=0;exitDx=0;exitDy=0;" parent="1" source="h0eOzMq_kodjlUiezx8Z-121" edge="1">
          <mxGeometry width="50" height="50" relative="1" as="geometry">
            <mxPoint x="-1080" y="850" as="sourcePoint" />
            <mxPoint x="-1070" y="620" as="targetPoint" />
          </mxGeometry>
        </mxCell>
      </root>
    </mxGraphModel>
  </diagram>
</mxfile>
